<svg xmlns="http://www.w3.org/2000/svg" viewBox="0 0 622.85 105.16"><defs><style>.cls-1{font-size:44.61px;fill:#134c66;font-family:Montserrat-Bold, Montserrat;font-weight:700;letter-spacing:0.36em;}.cls-2{letter-spacing:0.39em;}.cls-3{font-size:39.22px;font-family:Montserrat-Regular, Montserrat;letter-spacing:0.04em;}.cls-13,.cls-3{fill:#f79320;}.cls-4{letter-spacing:0.08em;}.cls-5{letter-spacing:0.07em;}.cls-6{letter-spacing:0.04em;}.cls-7{letter-spacing:0.02em;}.cls-8{letter-spacing:0.06em;}.cls-9{letter-spacing:0.08em;}.cls-10{fill:#003f58;}.cls-10,.cls-11,.cls-12{fill-rule:evenodd;}.cls-11{fill:#f15d6d;}.cls-12{fill:#00acc0;}</style></defs><g id="Layer_2" data-name="Layer 2"><g id="Layer_1-2" data-name="Layer 1"><text class="cls-1" transform="translate(172.45 43.62) scale(0.58 1)">Y<tspan class="cls-2" x="43.81" y="0">OUTH CENTRE FOR </tspan></text><text class="cls-3" transform="translate(172.16 89.63) scale(0.58 1)">P<tspan class="cls-4" x="28.31" y="0">A</tspan><tspan class="cls-5" x="60.39" y="0">R</tspan><tspan class="cls-4" x="91.53" y="0">TICI</tspan><tspan class="cls-6" x="180.48" y="0">P</tspan><tspan class="cls-7" x="208.79" y="0">A</tspan><tspan class="cls-4" x="238.72" y="0">TION AND INF</tspan><tspan class="cls-8" x="558.89" y="0">L</tspan><tspan class="cls-9" x="583.4" y="0">UENCE </tspan></text><path class="cls-10" d="M52.63,12.58A6.45,6.45,0,1,0,61.74,12,6.45,6.45,0,0,0,52.63,12.58Z"/><path class="cls-11" d="M82.14,52.13C84.32,31.07,77.16,8.4,64.35,0,68.06,6.89,72.7,16.86,66,29.23c-9.43-1.92-20.3-2.47-29.19,2.34C52.14,32.19,65.5,41.7,82.14,52.13Z"/><path class="cls-10" d="M111.26,4.73a6.45,6.45,0,1,0,5.09,7.57A6.44,6.44,0,0,0,111.26,4.73Z"/><path class="cls-12" d="M91.76,50.05C111.09,41.41,127.15,23.88,128,8.58c-4.11,6.66-10.42,15.67-24.48,16.07-3-9.14-8-18.82-16.62-24.11C94,14.11,92.47,30.43,91.76,50.05Z"/><path class="cls-13" d="M100.13,62.47a54.89,54.89,0,0,1,8-9.71,4,4,0,0,0-2.1-.57,7.17,7.17,0,0,0-3.28.93c-2.24,1.16-3.87,3.46-5.94,6.36-1.17,1.65-2.51,3.52-4.14,5.43a28.6,28.6,0,0,1-9.58,6.85c-1.32.64-2.74,1.24-4.22,1.8h.08c1.39.19,2.79.36,4.17.52l.2,0a36.58,36.58,0,0,0,4.5-2C90.84,70.32,96,66.2,100.13,62.47Z"/><path class="cls-13" d="M113.42,59.94c3-2.94,6.32-6.18,9.76-7.9-2-1.56-4.22-1.73-7-.64s-4.26,2.57-11.44,9.7c-4.34,4.3-12,10.71-16.1,13.05l-.73.39.75,0,.59,0,1.51.09c.53,0,1.07,0,1.62,0l.54,0,1.15-.06.67-.08,1.09-.13.74-.13,1-.17c3.64-2.73,11.22-9.74,13.88-12.25C112.07,61.26,112.73,60.62,113.42,59.94Z"/><path class="cls-13" d="M114.65,61.73c-.69.68-1.37,1.33-2,2-.08.06-5.47,5.16-10,9.1l.51-.16.32-.11c.84-.28,1.67-.59,2.48-.9l.17-.07,1-.42.21-.08,1.07-.45.06,0c.79-.34,1.54-.68,2.25-1l.07,0,1-.45.08,0c1-.48,1.87-.93,2.64-1.33l.1,0,.63-.33.08,0,.61-.32A34.78,34.78,0,0,0,122,62.11,58.25,58.25,0,0,1,131,55a5.14,5.14,0,0,0-4.28-1.82C122.69,53.85,118.42,58,114.65,61.73Z"/><path class="cls-13" d="M134.62,56a3.32,3.32,0,0,0-1.49.37c-3.76,1.94-7.06,4.93-10,7.57a36.23,36.23,0,0,1-6.49,5.11c-3.23,1.71-10.81,5.71-18.59,7.3a32.73,32.73,0,0,1-6.34.68c-.35,0-.71,0-1.06,0-2.08-.09-4.63-.3-7.35-.59-3.15-.34-6.42-.79-9.46-1.32C61.34,73,60.15,71,59.76,70.38a2.15,2.15,0,0,1-.25-2c.47-1.1,1.76-1.25,3-1.25a38.71,38.71,0,0,1,7.16,1l.11,0a23.62,23.62,0,0,0,7.31,1.34,10.35,10.35,0,0,0,4.87-1,6.77,6.77,0,0,0,.94-.6C84,67,85.3,65.65,85,64.12a2.79,2.79,0,0,0-1.57-2c-.64-.09-2.73-.66-6.37-1.66-4-1.11-9-2.48-12.2-3.2-1-.23-2.15-.52-3.32-.82a49,49,0,0,0-12.5-2.06,24.8,24.8,0,0,0-6,.71l-1.22.3c-8.17,2-15.89,3.89-21.91,16.16a53.86,53.86,0,0,0-2.29,5.73A37.56,37.56,0,0,1,13,87a71.7,71.7,0,0,1-5.61,6.28c-2.86,3-7.14,7.45-7.37,9.19.71.85,5.26,3.58,13.55,2.32,21.52-3.27,26-10.58,44.08-10.56,1.76,0,3.61.11,5.5.11,14,0,48.36-2.13,65.51-21.78,3.07-3.52,8.91-11.22,10.79-13.71C138.52,57.84,136.63,56,134.62,56Z"/></g></g></svg>